<?xml version="1.0" standalone="no"?><!DOCTYPE svg PUBLIC "-//W3C//DTD SVG 1.1//EN" "http://www.w3.org/Graphics/SVG/1.1/DTD/svg11.dtd"><svg t="1770516952550" class="icon" viewBox="0 0 1024 1024" version="1.1" xmlns="http://www.w3.org/2000/svg" p-id="1396" xmlns:xlink="http://www.w3.org/1999/xlink" width="200" height="200"><path d="M102.4 102.4h819.2v819.2H102.4z" fill="#ED4A4A" p-id="1397"></path><path d="M268.288 225.28h27.648v54.4768H348.16V225.28h27.4432v138.4448H348.16v-59.8016h-52.224v59.8016H268.288zM474.9312 327.68H430.08l-9.6256 35.6352h-28.2624L436.6336 225.28h32.5632l44.6464 138.4448h-29.0816z m-5.9392-20.48l-4.096-15.1552c-4.3008-14.336-7.9872-30.3104-12.0832-45.2608-3.4816 15.1552-7.5776 30.9248-11.8784 45.2608l-4.096 15.1552zM530.0224 225.28h45.4656c30.72 0 54.272 10.6496 54.272 43.4176s-23.7568 45.8752-53.4528 45.8752h-18.432v49.152h-27.8528zM573.44 292.6592c19.0464 0 28.2624-7.9872 28.2624-23.9616s-10.0352-21.504-29.2864-21.504h-15.7696v45.4656zM655.36 225.28h45.056c30.72 0 54.272 10.6496 54.272 43.4176s-23.7568 45.8752-53.4528 45.8752h-18.432v49.152H655.36z m44.4416 67.3792c19.0464 0 28.2624-7.9872 28.2624-23.9616s-11.264-21.504-29.696-21.504h-15.7696v45.4656zM800.9728 312.9344l-40.96-87.6544h29.2864l13.9264 33.5872c3.8912 10.24 7.5776 20.48 11.8784 30.72 4.3008-10.6496 8.3968-20.48 12.288-30.72l14.1312-33.5872h28.8768l-40.96 87.6544v50.7904h-28.4672zM464.4864 442.7776h28.2624l40.96 73.728 13.9264 29.9008c-1.4336-14.336-3.4816-32.768-3.4816-48.5376v-55.296h26.2144v138.4448h-28.0576l-40.96-74.1376-14.1312-29.696c1.2288 14.9504 3.2768 32.3584 3.2768 48.3328v55.5008h-26.0096zM604.7744 442.7776h84.992v22.9376h-57.344v31.9488h48.7424v23.1424h-48.7424v37.0688h59.392v23.1424h-87.04zM706.3552 442.7776h28.2624l11.0592 67.584c2.048 14.5408 4.3008 29.2864 6.3488 44.2368 2.8672-14.7456 5.7344-29.696 8.8064-44.2368l16.1792-67.584h23.552l16.1792 67.584c3.072 14.1312 5.7344 29.2864 8.8064 44.2368 2.048-14.9504 4.096-29.696 6.144-44.2368l10.8544-67.584h27.8528l-25.6 138.4448h-34.4064L794.8288 512c-2.2528-10.8544-4.3008-21.504-5.9392-31.9488-1.8432 10.4448-3.6864 20.48-5.9392 31.9488l-15.1552 68.4032h-34.816zM443.5968 747.9296l-40.96-87.6544h29.2864l13.9264 33.5872c3.8912 10.24 7.5776 20.48 11.8784 30.72 4.3008-10.6496 8.3968-20.48 12.288-30.72l13.9264-33.5872H512l-40.96 87.6544V798.72h-27.4432zM528.9984 660.2752H614.4v22.9376h-57.344v31.9488h48.7424v23.1424h-49.152v37.0688h59.392V798.72h-87.04zM709.0176 763.0848h-44.8512L655.36 798.72h-29.0816l44.4416-138.4448h32.5632L747.7248 798.72H718.848z m-5.9392-21.504l-4.096-15.1552c-4.3008-14.336-7.9872-30.3104-12.0832-45.2608-3.4816 15.1552-7.5776 30.9248-11.8784 45.2608l-4.096 15.1552zM839.68 798.72l-28.672-52.4288h-19.2512V798.72h-27.648v-138.4448h48.3328c29.0816 0 52.0192 10.0352 52.0192 40.96a39.7312 39.7312 0 0 1-26.4192 39.936L870.4 798.72z m-47.7184-74.3424h18.0224c17.8176 0 27.4432-7.5776 27.4432-22.3232s-9.8304-20.48-27.4432-20.48h-18.0224z" fill="#DD3333" p-id="1398"></path><path d="M256 225.28h27.648v54.4768h52.4288V225.28h27.4432v138.4448h-27.4432v-59.8016h-52.4288v59.8016H256zM462.6432 327.68H417.792l-9.8304 35.6352h-28.0576L424.3456 225.28h32.5632l44.6464 138.4448h-29.0816z m-5.9392-20.48l-4.096-15.1552c-4.3008-14.336-7.9872-30.3104-12.0832-45.2608-3.4816 15.1552-7.5776 30.9248-11.8784 45.2608l-4.096 15.1552zM517.7344 225.28h45.4656c30.72 0 54.272 10.6496 54.272 43.4176s-23.552 45.8752-53.4528 45.8752h-18.432v49.152h-27.8528z m44.4416 67.3792c19.0464 0 28.2624-7.9872 28.2624-23.9616s-10.0352-21.504-29.2864-21.504h-15.7696v45.4656zM642.6624 225.28h45.4656c30.72 0 54.272 10.6496 54.272 43.4176s-23.7568 45.8752-53.4528 45.8752h-18.432v49.152h-27.8528z m44.4416 67.3792c19.0464 0 28.2624-7.9872 28.2624-23.9616s-10.0352-21.504-29.0816-21.504h-15.7696v45.4656zM788.6848 312.9344l-40.96-87.6544h29.2864l13.9264 33.5872c3.8912 10.24 7.5776 20.48 11.8784 30.72 4.3008-10.6496 8.3968-20.48 12.288-30.72l14.1312-33.5872h28.8768l-40.96 87.6544v50.7904h-28.4672zM452.1984 442.7776h28.2624l40.96 73.728 13.9264 29.9008c-1.4336-14.336-3.4816-32.768-3.4816-48.5376v-55.296h26.2144v138.4448h-28.0576l-40.96-74.1376-14.1312-29.696c1.2288 14.9504 3.2768 32.3584 3.2768 48.3328v55.5008h-26.0096zM592.4864 442.7776h84.992v22.9376h-57.344v31.9488h48.7424v23.1424h-48.7424v37.0688h59.392v23.1424h-87.04zM694.0672 442.7776h28.2624l11.0592 67.584c2.048 14.5408 4.3008 29.2864 6.3488 44.2368 2.8672-14.7456 5.7344-29.696 8.8064-44.2368l16.1792-67.584h23.552l16.1792 67.584c3.072 14.1312 5.7344 29.2864 8.8064 44.2368 2.048-14.9504 4.096-29.696 6.144-44.2368l10.8544-67.584h27.8528l-25.6 138.4448H798.72L782.5408 512c-2.2528-10.8544-4.3008-21.504-5.9392-31.9488-1.8432 10.4448-3.6864 20.48-5.9392 31.9488l-15.1552 68.4032h-34.816zM431.3088 747.9296l-40.96-87.6544h29.2864l13.9264 33.5872c3.8912 10.24 7.5776 20.48 11.8784 30.72 4.3008-10.6496 8.3968-20.48 12.288-30.72l13.312-33.5872h28.8768l-40.96 87.6544V798.72h-27.648zM516.7104 660.2752h84.992v22.9376h-57.344v31.9488H593.92v23.1424h-49.5616v37.0688h59.392V798.72h-87.04zM696.32 763.0848h-44.4416L642.048 798.72H614.4l44.4416-138.4448h32.5632L735.4368 798.72H706.56z m-5.9392-21.504l-4.096-15.1552c-4.3008-14.336-7.9872-30.3104-12.0832-45.2608-3.4816 15.1552-7.5776 30.9248-11.8784 45.2608l-4.096 15.1552zM827.1872 798.72L798.72 746.2912h-19.2512V798.72h-27.648v-138.4448h48.3328c29.0816 0 52.0192 10.0352 52.0192 40.96a39.7312 39.7312 0 0 1-26.4192 39.936L858.112 798.72z m-47.7184-74.3424h18.0224c17.8176 0 27.4432-7.5776 27.4432-22.3232s-9.6256-20.48-27.4432-20.48h-18.0224z" fill="#FFDA71" p-id="1399"></path><path d="M211.5584 889.2416V1003.52l141.7216-114.2784h-141.7216z" fill="#ED4A4A" p-id="1400"></path></svg>